<svg width="68" height="68" viewBox="0 0 68 68" fill="none" xmlns="http://www.w3.org/2000/svg">
<g filter="url(#filter0_d_89_945)">
<rect x="6" y="2" width="56" height="56" rx="28" fill="#2196F3" shape-rendering="crispEdges"/>
<path fill-rule="evenodd" clip-rule="evenodd" d="M28.5996 18.2473C30.2694 17.5714 32.0933 17.2 34 17.2C41.9529 17.2 48.4 23.6471 48.4 31.6C48.4 32.4837 47.6836 33.2 46.8 33.2C45.9163 33.2 45.2 32.4837 45.2 31.6C45.2 25.4144 40.1856 20.4 34 20.4C32.5118 20.4 31.0951 20.6894 29.8003 21.2135C28.9812 21.5451 28.0484 21.1499 27.7169 20.3308C27.3853 19.5117 27.7805 18.5789 28.5996 18.2473ZM25.4587 21.9338C26.1213 22.5185 26.1843 23.5296 25.5996 24.1921C23.8561 26.1675 22.8 28.7585 22.8 31.6C22.8 32.4837 22.0836 33.2 21.2 33.2C20.3163 33.2 19.6 32.4837 19.6 31.6C19.6 27.9491 20.9607 24.6121 23.2004 22.0746C23.7851 21.4121 24.7962 21.349 25.4587 21.9338Z" fill="white"/>
<path fill-rule="evenodd" clip-rule="evenodd" d="M26 31.6C26 27.1817 29.5817 23.6 34 23.6C38.4183 23.6 42 27.1817 42 31.6C42 32.4837 41.2836 33.2 40.4 33.2C39.5163 33.2 38.8 32.4837 38.8 31.6C38.8 28.949 36.6509 26.8 34 26.8C31.349 26.8 29.2 28.949 29.2 31.6C29.2 34.2835 28.6485 36.8423 27.6513 39.166C27.3028 39.9781 26.362 40.3539 25.55 40.0054C24.7379 39.6569 24.3621 38.7161 24.7106 37.904C25.5399 35.9716 26 33.8416 26 31.6ZM40.2738 34.8198C41.1466 34.9582 41.7418 35.7779 41.6034 36.6507C41.3928 37.9787 41.1004 39.2798 40.7316 40.5484C40.4849 41.397 39.5971 41.8849 38.7485 41.6382C37.9 41.3915 37.4121 40.5037 37.6588 39.6551C37.9904 38.5144 38.2534 37.3442 38.4429 36.1494C38.5814 35.2766 39.4011 34.6813 40.2738 34.8198Z" fill="white"/>
<path fill-rule="evenodd" clip-rule="evenodd" d="M34 30C34.8836 30 35.6 30.7164 35.6 31.6C35.6 35.1781 34.865 38.5886 33.5362 41.6857C33.1878 42.4978 32.247 42.8736 31.435 42.5252C30.6229 42.1768 30.247 41.236 30.5954 40.424C31.7563 37.7182 32.4 34.7364 32.4 31.6C32.4 30.7164 33.1163 30 34 30Z" fill="white"/>
</g>
<defs>
<filter id="filter0_d_89_945" x="0" y="0" width="68" height="68" filterUnits="userSpaceOnUse" color-interpolation-filters="sRGB">
<feFlood flood-opacity="0" result="BackgroundImageFix"/>
<feColorMatrix in="SourceAlpha" type="matrix" values="0 0 0 0 0 0 0 0 0 0 0 0 0 0 0 0 0 0 127 0" result="hardAlpha"/>
<feOffset dy="4"/>
<feGaussianBlur stdDeviation="3"/>
<feComposite in2="hardAlpha" operator="out"/>
<feColorMatrix type="matrix" values="0 0 0 0 0 0 0 0 0 0 0 0 0 0 0 0 0 0 0.1 0"/>
<feBlend mode="normal" in2="BackgroundImageFix" result="effect1_dropShadow_89_945"/>
<feBlend mode="normal" in="SourceGraphic" in2="effect1_dropShadow_89_945" result="shape"/>
</filter>
</defs>
</svg>
