<svg width="80" height="80" viewBox="0 0 80 80" fill="none" xmlns="http://www.w3.org/2000/svg">
<rect width="80" height="80" rx="8" fill="#F5F5F5"/>
<path fill-rule="evenodd" clip-rule="evenodd" d="M40 17.4445C34.1628 22.6689 26.4882 25.8826 18.0651 25.9969C17.7592 27.8191 17.6 29.691 17.6 31.6001C17.6 46.2297 26.9498 58.6755 40 63.2881C53.0501 58.6755 62.4 46.2297 62.4 31.6001C62.4 29.691 62.2408 27.8191 61.9349 25.9969C53.5117 25.8826 45.8372 22.6689 40 17.4445ZM42.8 51.2C42.8 52.7464 41.5464 54 40 54C38.4536 54 37.2 52.7464 37.2 51.2C37.2 49.6536 38.4536 48.4 40 48.4C41.5464 48.4 42.8 49.6536 42.8 51.2ZM42.8 31.6C42.8 30.0536 41.5464 28.8 40 28.8C38.4536 28.8 37.2 30.0536 37.2 31.6V40C37.2 41.5464 38.4536 42.8 40 42.8C41.5464 42.8 42.8 41.5464 42.8 40V31.6Z" fill="#2094F3"/>
</svg>
