<svg width="80" height="80" viewBox="0 0 80 80" fill="none" xmlns="http://www.w3.org/2000/svg">
<rect width="80" height="80" rx="8" fill="#F5F5F5"/>
<path fill-rule="evenodd" clip-rule="evenodd" d="M30.5494 19.4328C33.4716 18.25 36.6634 17.6 40 17.6C53.9176 17.6 65.2001 28.8824 65.2001 42.8C65.2001 44.3464 63.9464 45.6 62.4001 45.6C60.8537 45.6 59.6001 44.3464 59.6001 42.8C59.6001 31.9752 50.8248 23.2 40 23.2C37.3957 23.2 34.9165 23.7064 32.6507 24.6236C31.2172 25.2039 29.5849 24.5122 29.0046 23.0788C28.4244 21.6454 29.116 20.013 30.5494 19.4328ZM25.0529 25.8841C26.2123 26.9074 26.3226 28.6768 25.2993 29.8362C22.2482 33.2931 20.4 37.8273 20.4 42.8C20.4 44.3464 19.1464 45.6 17.6 45.6C16.0537 45.6 14.8 44.3464 14.8 42.8C14.8 36.4109 17.1814 30.5712 21.1008 26.1305C22.1241 24.9711 23.8935 24.8608 25.0529 25.8841Z" fill="#2094F3"/>
<path fill-rule="evenodd" clip-rule="evenodd" d="M26 42.8C26 35.068 32.2681 28.8 40 28.8C47.732 28.8 54.0001 35.068 54.0001 42.8C54.0001 44.3464 52.7464 45.6 51.2001 45.6C49.6537 45.6 48.4001 44.3464 48.4001 42.8C48.4001 38.1608 44.6392 34.4 40 34.4C35.3609 34.4 31.6 38.1608 31.6 42.8C31.6 47.496 30.635 51.9739 28.8898 56.0405C28.28 57.4616 26.6336 58.1192 25.2125 57.5093C23.7915 56.8995 23.1338 55.2531 23.7437 53.832C25.195 50.4503 26 46.7228 26 42.8ZM50.9793 48.4346C52.5066 48.6768 53.5483 50.1113 53.3061 51.6386C52.9374 53.9627 52.4258 56.2395 51.7803 58.4597C51.3487 59.9446 49.795 60.7985 48.31 60.3668C46.8251 59.9351 45.9713 58.3814 46.403 56.8965C46.9833 54.9001 47.4435 52.8523 47.7752 50.7613C48.0175 49.234 49.452 48.1923 50.9793 48.4346Z" fill="#2094F3"/>
<path fill-rule="evenodd" clip-rule="evenodd" d="M40 40C41.5464 40 42.8001 41.2536 42.8001 42.8C42.8001 49.0616 41.5138 55.0301 39.1885 60.4499C38.5787 61.871 36.9324 62.5288 35.5113 61.9191C34.0902 61.3094 33.4324 59.663 34.0421 58.2419C36.0737 53.5069 37.2001 48.2886 37.2001 42.8C37.2001 41.2536 38.4537 40 40 40Z" fill="#2094F3"/>
</svg>
