<svg width="80" height="80" viewBox="0 0 80 80" fill="none" xmlns="http://www.w3.org/2000/svg">
<rect width="80" height="80" rx="8" fill="#F5F5F5"/>
<path fill-rule="evenodd" clip-rule="evenodd" d="M28.8 17.6C25.7072 17.6 23.2 20.1072 23.2 23.2V56.8C23.2 59.8928 25.7072 62.4 28.8 62.4H51.2C54.2928 62.4 56.8 59.8928 56.8 56.8V32.7598C56.8 31.2746 56.21 29.8502 55.1598 28.8L45.6 19.2402C44.5498 18.19 43.1254 17.6 41.6402 17.6H28.8ZM34.4 45.6C34.4 44.0536 33.1464 42.8 31.6 42.8C30.0536 42.8 28.8 44.0536 28.8 45.6V54C28.8 55.5464 30.0536 56.8 31.6 56.8C33.1464 56.8 34.4 55.5464 34.4 54V45.6ZM40 37.2C41.5464 37.2 42.8 38.4536 42.8 40V54C42.8 55.5464 41.5464 56.8 40 56.8C38.4536 56.8 37.2 55.5464 37.2 54V40C37.2 38.4536 38.4536 37.2 40 37.2ZM51.2 34.4C51.2 32.8536 49.9464 31.6 48.4 31.6C46.8536 31.6 45.6 32.8536 45.6 34.4V54C45.6 55.5464 46.8536 56.8 48.4 56.8C49.9464 56.8 51.2 55.5464 51.2 54V34.4Z" fill="#2094F3"/>
</svg>
