<svg width="80" height="80" viewBox="0 0 80 80" fill="none" xmlns="http://www.w3.org/2000/svg">
<rect width="80" height="80" rx="8" fill="#F5F5F5"/>
<path fill-rule="evenodd" clip-rule="evenodd" d="M40 62.4C52.3712 62.4 62.4 52.3712 62.4 40C62.4 27.6288 52.3712 17.6 40 17.6C27.6288 17.6 17.6 27.6288 17.6 40C17.6 52.3712 27.6288 62.4 40 62.4ZM31.6 37.2C33.1464 37.2 34.4 35.9464 34.4 34.4C34.4 32.8536 33.1464 31.6 31.6 31.6C30.0536 31.6 28.8 32.8536 28.8 34.4C28.8 35.9464 30.0536 37.2 31.6 37.2ZM51.2 34.4C51.2 35.9464 49.9464 37.2 48.4 37.2C46.8536 37.2 45.6 35.9464 45.6 34.4C45.6 32.8536 46.8536 31.6 48.4 31.6C49.9464 31.6 51.2 32.8536 51.2 34.4ZM30.1005 50.8597C31.1939 51.9531 32.9668 51.9531 34.0603 50.8597C37.3407 47.5793 42.6593 47.5793 45.9397 50.8597C47.0331 51.9531 48.806 51.9531 49.8995 50.8597C50.9929 49.7662 50.9929 47.9933 49.8995 46.8999C44.4321 41.4325 35.5678 41.4325 30.1005 46.8999C29.007 47.9933 29.007 49.7662 30.1005 50.8597Z" fill="#2094F3"/>
</svg>
