<svg width="25" height="24" viewBox="0 0 25 24" fill="none" xmlns="http://www.w3.org/2000/svg">
<path d="M13.3486 2.7515C12.8799 2.28287 12.1201 2.28287 11.6515 2.7515L3.2515 11.1515C2.78287 11.6201 2.78287 12.3799 3.2515 12.8486C3.72013 13.3172 4.47992 13.3172 4.94855 12.8486L5.30002 12.4971V20.4C5.30002 21.0628 5.83728 21.6 6.50002 21.6H8.90002C9.56277 21.6 10.1 21.0628 10.1 20.4V18C10.1 17.3373 10.6373 16.8 11.3 16.8H13.7C14.3628 16.8 14.9 17.3373 14.9 18V20.4C14.9 21.0628 15.4373 21.6 16.1 21.6H18.5C19.1628 21.6 19.7 21.0628 19.7 20.4V12.4971L20.0515 12.8486C20.5201 13.3172 21.2799 13.3172 21.7486 12.8486C22.2172 12.3799 22.2172 11.6201 21.7486 11.1515L13.3486 2.7515Z" fill="white"/>
</svg>
