<svg width="14" height="14" viewBox="0 0 14 14" fill="none" xmlns="http://www.w3.org/2000/svg">
<path fill-rule="evenodd" clip-rule="evenodd" d="M6.99997 0.555542C5.3322 2.04824 3.13947 2.96645 0.732861 2.9991C0.645467 3.51972 0.599976 4.05455 0.599976 4.6C0.599976 8.77988 3.27136 12.3358 6.99998 13.6537C10.7286 12.3358 13.4 8.77988 13.4 4.6C13.4 4.05455 13.3545 3.51972 13.2671 2.9991C10.8605 2.96645 8.66775 2.04824 6.99997 0.555542ZM7.79998 10.2C7.79998 10.6418 7.4418 11 6.99998 11C6.55815 11 6.19998 10.6418 6.19998 10.2C6.19998 9.75815 6.55815 9.39998 6.99998 9.39998C7.4418 9.39998 7.79998 9.75815 7.79998 10.2ZM7.79998 4.59998C7.79998 4.15815 7.4418 3.79998 6.99998 3.79998C6.55815 3.79998 6.19998 4.15815 6.19998 4.59998V6.99998C6.19998 7.4418 6.55815 7.79998 6.99998 7.79998C7.4418 7.79998 7.79998 7.4418 7.79998 6.99998V4.59998Z" fill="#404040"/>
</svg>
