<svg width="14" height="14" viewBox="0 0 14 14" fill="none" xmlns="http://www.w3.org/2000/svg">
<path fill-rule="evenodd" clip-rule="evenodd" d="M8.59998 0.268677L5.39998 3.46868V13.7314L8.59998 10.5314V0.268677Z" fill="#2094F3"/>
<path fill-rule="evenodd" clip-rule="evenodd" d="M1.96566 1.63436C1.73686 1.40556 1.39277 1.33712 1.09383 1.46094C0.794889 1.58477 0.599976 1.87648 0.599976 2.20005V10.2C0.599976 10.4122 0.684261 10.6157 0.83429 10.7657L3.79998 13.7314V3.46868L1.96566 1.63436Z" fill="#2094F3"/>
<path fill-rule="evenodd" clip-rule="evenodd" d="M13.1657 3.23436L10.2 0.268677V10.5314L12.0343 12.3657C12.2631 12.5945 12.6072 12.663 12.9061 12.5392C13.2051 12.4153 13.4 12.1236 13.4 11.8V3.80005C13.4 3.58787 13.3157 3.38439 13.1657 3.23436Z" fill="#2094F3"/>
</svg>
