<svg width="182" height="200" viewBox="0 0 182 200" fill="none" xmlns="http://www.w3.org/2000/svg">
<path d="M101.302 10.0791L14.3251 55.2353C11.3252 56.7928 10.2108 60.3309 11.7659 63.3245L76.3028 187.562C77.8579 190.556 81.3939 191.679 84.3938 190.122L171.37 144.966C174.37 143.408 175.485 139.87 173.93 136.877L109.393 12.6389C107.838 9.64535 104.302 8.52165 101.302 10.0791Z" fill="#EBEBEB"/>
<path d="M103.426 18.6869L20 62L84.076 185.35L167.502 142.037L103.426 18.6869Z" fill="#E0E0E0"/>
<path d="M101.426 17.6869L18 61L80.6931 181.688L164.12 138.375L101.426 17.6869Z" fill="#FAFAFA"/>
<path d="M164.971 138.755L102.107 17.4214L18.4015 60.6859C41.8631 106.097 63.8584 148.468 81.2655 182.019L164.971 138.755L81.2655 182.019C63.8489 148.47 41.9568 106.074 18.4015 60.6859L102.107 17.4214L164.971 138.755Z" fill="#E0E0E0"/>
<path d="M134.827 153.656C134.827 153.656 151.868 134.398 152.769 116.749C151.212 119.749 149.437 122.528 146.833 124.668C144.23 126.807 140.591 128.115 137.36 129.051C137.36 129.051 139.814 147.236 134.827 153.656Z" fill="#E0E0E0"/>
<path d="M52.9876 84.853L47.6625 87.6177C45.9876 88.4873 45.513 89.9875 46.3829 91.6622L49.1488 96.9867C50.0188 98.6615 51.5193 99.1362 53.1943 98.2666L58.5194 95.5019C60.1943 94.6323 60.669 93.1321 59.799 91.4574L57.0331 86.1329C56.1631 84.4581 54.6626 83.9834 52.9876 84.853Z" fill="#EBEBEB"/>
<path d="M52.8318 93.6565C52.8026 93.6789 52.8676 93.6514 52.8318 93.6565C52.796 93.6616 52.8662 93.6699 52.8318 93.6565L50.7099 92.9493C50.6531 92.9144 50.5901 92.0259 50.5679 91.9595C50.5458 91.893 50.5444 92.0241 50.5679 91.9595C50.5915 91.8948 50.5104 91.9899 50.5679 91.9595C50.6254 91.929 50.5053 91.9405 50.5679 91.9595L52.6898 92.6667L53.9599 87.4346C53.9823 87.3622 54.8878 87.3291 54.9498 87.2933C55.0118 87.2575 54.8808 87.2737 54.9498 87.2933C54.9838 87.3051 54.9224 87.2682 54.9498 87.2933C54.9773 87.3184 54.9333 87.2588 54.9498 87.2933C54.9663 87.3278 54.9468 87.2549 54.9498 87.2933C54.9528 87.3317 54.9608 87.257 54.9498 87.2933L53.8218 93.5152C53.8017 93.546 53.8521 93.4965 53.8218 93.5152C53.7915 93.5339 52.8668 93.6533 52.8318 93.6565Z" fill="white"/>
<path d="M110.478 56.6506C110.489 56.7261 99.5352 62.2871 86.0169 69.2341C72.4985 76.1811 61.5652 81.8836 61.5557 81.8176C61.5462 81.7515 72.4889 76.1825 86.0169 69.2341C99.5448 62.2857 110.449 56.5873 110.478 56.6506Z" fill="#E0E0E0"/>
<path d="M85.7792 78.8907C85.7792 78.8907 85.2962 78.736 84.7892 79.032L82.9513 80.3045C81.1339 81.3162 78.3004 82.8808 75.4575 84.4048C72.6146 85.9288 69.7883 87.5432 67.9638 88.5051L66.1258 89.7776C65.8562 89.9267 65.4241 89.8124 65.1359 89.9189C65.3838 89.7347 65.8522 89.9182 66.1258 89.7776L67.9638 88.5051C69.7797 87.4834 72.6146 85.9288 75.4575 84.4048C78.3004 82.8808 81.1282 81.2763 82.9513 80.3045L84.7892 79.032C85.0578 78.8825 85.4893 78.99 85.7792 78.8907Z" fill="#E0E0E0"/>
<path d="M111.478 60.6506C111.488 60.7167 100.542 66.2836 87.0169 73.2341C73.4919 80.1846 62.5665 85.8931 62.5557 85.8176C62.5448 85.7421 73.4824 80.186 87.0169 73.2341C100.551 66.2823 111.467 60.5751 111.478 60.6506Z" fill="#E0E0E0"/>
<path d="M61.9876 102.853L56.6625 105.618C54.9876 106.487 54.513 107.987 55.3829 109.662L58.1488 114.987C59.0188 116.661 60.5193 117.136 62.1943 116.267L67.5194 113.502C69.1943 112.632 69.669 111.132 68.799 109.457L66.0331 104.133C65.1631 102.458 63.6626 101.983 61.9876 102.853Z" fill="#EBEBEB"/>
<path d="M61.8318 111.657C61.8011 111.679 61.869 111.651 61.8318 111.657C61.7947 111.662 61.8677 111.67 61.8318 111.657L59.7099 110.949C59.6773 110.936 59.7353 110.976 59.7099 110.949C59.6846 110.923 59.5818 109.994 59.5679 109.96C59.5541 109.925 59.5681 109.997 59.5679 109.96C59.5678 109.922 59.5543 109.994 59.5679 109.96C59.5796 109.925 59.5443 109.986 59.5679 109.96C59.5916 109.933 59.5362 109.974 59.5679 109.96C59.5997 109.945 59.5333 109.959 59.5679 109.96C59.6026 109.96 59.536 109.944 59.5679 109.96L61.6898 110.667L62.9599 105.435C62.9806 105.364 63.8896 105.329 63.9498 105.293C64.01 105.258 63.8825 105.274 63.9498 105.293C64.0172 105.315 63.9153 105.227 63.9498 105.293C63.9843 105.36 63.9684 105.221 63.9498 105.293L62.8218 111.515C62.8061 111.553 62.8507 111.488 62.8218 111.515C62.7929 111.543 61.8688 111.645 61.8318 111.657Z" fill="white"/>
<path d="M119.478 74.6506C119.489 74.7261 108.541 80.2767 95.0169 87.2341C81.4929 94.1916 70.5652 99.8836 70.5557 99.8176C70.5462 99.7515 81.4916 94.1821 95.0169 87.2341C108.542 80.2861 119.449 74.5873 119.478 74.6506Z" fill="#E0E0E0"/>
<path d="M94.7792 96.8907C94.7792 96.8907 94.3059 96.7346 93.7892 97.032L91.9513 98.3045C90.1339 99.3162 87.3004 100.881 84.4575 102.405C81.6146 103.929 78.7883 105.543 76.9638 106.505L75.1258 107.778C74.8562 107.927 74.4241 107.812 74.1359 107.919C74.3823 107.732 74.8509 107.916 75.1258 107.778L76.9638 106.505C78.7797 105.483 81.6146 103.929 84.4575 102.405C87.3004 100.881 90.1282 99.2763 91.9513 98.3045L93.7892 97.032C94.0578 96.8825 94.4893 96.99 94.7792 96.8907Z" fill="#E0E0E0"/>
<path d="M121.478 78.6507C121.488 78.7168 110.542 84.2839 97.0169 91.2342C83.4919 98.1845 72.5665 103.893 72.5557 103.818C72.5449 103.742 83.4919 98.1845 97.0169 91.2342C110.542 84.2839 121.465 78.5563 121.478 78.6507Z" fill="#E0E0E0"/>
<path d="M71.9876 120.853L66.6625 123.618C64.9876 124.487 64.513 125.987 65.3829 127.662L68.1488 132.987C69.0188 134.661 70.5193 135.136 72.1943 134.267L77.5194 131.502C79.1943 130.632 79.669 129.132 78.799 127.457L76.0331 122.133C75.1631 120.458 73.6626 119.983 71.9876 120.853Z" fill="#EBEBEB"/>
<path d="M70.8318 129.657C70.8013 129.679 70.8687 129.651 70.8318 129.657C70.7949 129.662 70.8675 129.67 70.8318 129.657L68.7099 128.949C68.6739 128.938 68.739 128.975 68.7099 128.949C68.6808 128.923 68.5849 127.996 68.5679 127.959C68.5509 127.923 68.5698 128 68.5679 127.959C68.566 127.919 68.5544 127.997 68.5679 127.959C68.5815 127.922 68.5414 127.987 68.5679 127.959C68.5945 127.932 68.533 127.972 68.5679 127.959C68.6029 127.947 68.5309 127.955 68.5679 127.959C68.605 127.963 68.5353 127.939 68.5679 127.959L70.6898 128.667L71.9599 123.435C71.9677 123.397 72.929 123.324 72.9498 123.293C72.9706 123.263 72.9194 123.312 72.9498 123.293C72.9802 123.274 72.9147 123.298 72.9498 123.293C72.9849 123.289 72.9157 123.282 72.9498 123.293C72.984 123.304 72.9221 123.269 72.9498 123.293C72.9775 123.318 72.933 123.259 72.9498 123.293C72.9667 123.328 72.9466 123.255 72.9498 123.293C72.9531 123.332 72.9607 123.257 72.9498 123.293L71.8218 129.515C71.7848 129.58 70.8983 129.633 70.8318 129.657Z" fill="white"/>
<path d="M128.478 92.6508C128.489 92.7263 117.54 98.2742 104.017 105.234C90.4933 112.194 79.5665 117.893 79.5557 117.818C79.5449 117.742 90.4824 112.186 104.017 105.234C117.551 98.2823 128.44 92.5888 128.478 92.6508Z" fill="#E0E0E0"/>
<path d="M104.779 114.891C104.527 115.074 104.065 114.89 103.789 115.032L101.951 116.305C100.135 117.315 97.3089 118.881 94.4575 120.405C91.6062 121.929 88.7861 123.534 86.9638 124.505L85.1258 125.778C84.8556 125.925 84.4234 125.811 84.1359 125.919C84.3822 125.733 84.851 125.916 85.1258 125.778L86.9638 124.505C88.7804 123.494 91.6158 121.927 94.4575 120.405C97.2993 118.882 100.129 117.275 101.951 116.305L103.789 115.032C104.067 114.887 104.487 115.003 104.779 114.891Z" fill="#E0E0E0"/>
<path d="M130.478 96.6506C130.488 96.7167 119.542 102.284 106.017 109.234C92.4919 116.185 81.5665 121.893 81.5557 121.818C81.5448 121.742 92.4933 116.194 106.017 109.234C119.54 102.274 130.4 96.5846 130.478 96.6506Z" fill="#E0E0E0"/>
<path d="M80.9876 138.853L75.6625 141.618C73.9876 142.487 73.513 143.987 74.3829 145.662L77.1488 150.987C78.0188 152.661 79.5193 153.136 81.1943 152.267L86.5194 149.502C88.1943 148.632 88.669 147.132 87.799 145.457L85.0331 140.133C84.1631 138.458 82.6626 137.983 80.9876 138.853Z" fill="#EBEBEB"/>
<path d="M80.8318 147.656C80.8016 147.676 80.867 147.651 80.8318 147.656C80.7966 147.661 80.8664 147.667 80.8318 147.656L78.7099 146.949C78.645 146.919 78.5951 146.031 78.5679 145.959C78.5408 145.888 78.5414 146.029 78.5679 145.959C78.5944 145.889 78.5033 145.987 78.5679 145.959C78.6326 145.932 78.5031 145.929 78.5679 145.959L80.6899 146.667L82.9498 141.293C82.9684 141.22 82.8891 141.329 82.9498 141.293C83.0106 141.257 82.8824 141.271 82.9498 141.293C83.0159 141.318 82.9156 141.227 82.9498 141.293C82.9841 141.36 82.9658 141.22 82.9498 141.293L81.8218 147.515C81.7791 147.575 80.9012 147.647 80.8318 147.656Z" fill="white"/>
<path d="M138.478 110.651C138.489 110.726 127.542 116.284 114.017 123.234C100.492 130.185 89.5665 135.893 89.5557 135.818C89.5449 135.742 100.492 130.185 114.017 123.234C127.542 116.284 138.436 110.56 138.478 110.651Z" fill="#E0E0E0"/>
<path d="M113.779 132.891C113.533 133.077 113.064 132.894 112.789 133.032L110.951 134.305C109.134 135.315 106.301 136.882 103.458 138.405C100.614 139.927 97.787 141.534 95.9638 142.505L94.1258 143.778C93.5938 144.036 93.1373 143.929 93.1359 143.919C93.3824 143.733 93.8509 143.916 94.1258 143.778L95.9638 142.505C97.7813 141.494 100.614 139.927 103.458 138.405C106.301 136.882 109.128 135.275 110.951 134.305L112.789 133.032C113.06 132.885 113.492 132.999 113.779 132.891Z" fill="#E0E0E0"/>
<path d="M139.478 114.651C139.488 114.717 128.542 120.284 115.017 127.234C101.492 134.185 90.5652 139.884 90.5557 139.818C90.5462 139.751 101.493 134.194 115.017 127.234C128.54 120.274 139.439 114.579 139.478 114.651Z" fill="#E0E0E0"/>
<path d="M26.1236 46.7771L29.0974 53.4235C30.011 55.1867 31.7381 56.2162 33.6252 56.8177C35.5123 57.4192 37.9505 57.8717 39.707 56.9596L85.6594 32.2166C86.5284 31.7654 87.8575 31.5539 88.4873 30.8027C89.1172 30.0516 88.7567 28.6283 89.0513 27.6918C89.3459 26.7553 89.8429 26.5496 89.7573 25.5707C89.6717 24.5919 89.7841 23.473 89.3314 22.6011L85.3676 16.096L26.1236 46.7771Z" fill="#E0E0E0"/>
<path d="M56.8974 34.5862C55.6691 35.226 54.3148 35.3026 52.9376 35.1515C51.5603 35.0005 50.7451 34.4867 49.6837 33.5958C48.6223 32.7049 47.5232 31.2491 47.1359 29.919C46.7485 28.5888 47.1405 27.1387 47.5579 25.8182C47.9753 24.4976 48.0306 23.4312 49.1119 22.5659C50.1932 21.7006 51.5494 21.1288 52.9297 21.0107C54.31 20.8926 55.818 20.7663 57.0316 21.4352C58.2451 22.1042 59.9321 23.7404 60.5694 24.9707C61.4219 26.6165 60.8477 28.2948 60.2893 30.0614C59.731 31.8279 58.5407 33.7303 56.8974 34.5862ZM52.3657 24.1216C51.6078 24.5141 50.9395 24.6467 50.5278 25.3942C50.1161 26.1417 49.8905 27.6546 49.9638 28.5051C50.0371 29.3556 49.7141 29.8182 50.2477 30.4848C50.7814 31.1515 51.6977 31.9239 52.5116 32.1819C53.3256 32.4399 54.6617 31.9956 55.4815 31.7579C56.3014 31.5203 56.7702 31.1385 57.3195 30.4854C57.8687 29.8322 57.9321 29.2127 58.0255 28.3643C58.1189 27.5159 58.1354 27.1421 57.7415 26.3846C57.2138 25.3698 56.426 24.0432 55.3356 23.6976C54.2453 23.352 53.381 23.5959 52.3657 24.1216Z" fill="#E0E0E0"/>
<path d="M98.4178 45.8026C98.4352 45.9239 86.2002 52.0806 71.1287 59.8C56.0572 67.5194 43.9044 73.9118 43.8396 73.7973C43.7749 73.6828 56.0572 67.5194 71.1287 59.8C86.2002 52.0806 98.3477 45.6508 98.4178 45.8026Z" fill="#E0E0E0"/>
<path d="M82.739 50.3253C82.7567 50.4487 77.3348 53.6392 70.5794 57.112C63.824 60.5847 58.3505 63.0727 58.2779 62.9088C58.2053 62.7448 63.6821 59.5949 70.4375 56.1221C77.1929 52.6493 82.6829 50.2074 82.739 50.3253Z" fill="#E0E0E0"/>
<path d="M8 123C8.14859 123.147 37 113 37 113L26 88L0 98L14 106L8 123Z" fill="#455A64"/>
<path d="M21 96.0001V62.0001C21 62.0001 60.4768 54.5711 89 55.0001C117.523 55.429 147 60.0001 147 60.0001V93.0001C147 93.0001 57.6024 85.019 21 96.0001Z" fill="#455A64"/>
<path d="M21 96L37 114V93C37 93 23.6222 94.4387 21 96Z" fill="#263238"/>
<path d="M21 62C21.1294 62 21.0518 69.65 21 79C20.9483 88.35 21.1208 96 21 96C20.8793 96 20.9483 88.401 21 79C21.0518 69.599 20.8707 62 21 62Z" fill="#263238"/>
<path d="M160 121C159.851 121.147 131 111 131 111L142 86L168 96L154 104L160 121Z" fill="#455A64"/>
<path d="M148 94L132 111V92C137.365 92.1748 142.71 93.1326 148 94Z" fill="#263238"/>
<path d="M147 60C147.121 60 146.957 67.8834 147 77C147.043 86.1166 147.147 93 147 93C146.853 93 147.043 86.1166 147 77C146.957 67.8834 146.871 60 147 60Z" fill="#263238"/>
<path d="M43 76C42.9195 75.0652 43.526 73.8215 44 73C44.474 72.1785 45.1296 72.4344 46 72C46.8704 71.5657 48.0232 70.9024 49 71C49.9767 71.0976 50.2425 71.403 51 72L50 73C49.6788 72.72 49.4155 73.1225 49 73C48.5845 72.8776 48.4305 72.9415 48 73C47.236 73.1015 46.4651 73.4123 46 74C45.5349 74.5877 44.8937 75.2703 45 76C45.1062 76.7297 45.3846 77.5558 46 78C46.6153 78.4443 47.236 78.1015 48 78C48.4333 77.9456 49.6341 78.2283 50 78C50.3658 77.7718 50.7737 77.3571 51 77L52 78C51.4442 78.7722 50.9101 79.6503 50 80C49.0898 80.3498 47.9608 80.1895 47 80C46.0392 79.8106 44.6907 79.6654 44 79C43.3092 78.3346 43.1901 76.9193 43 76Z" fill="white"/>
<path d="M53 76.0001C52.8406 75.0149 52.5768 73.9045 53 73.0001C53.4232 72.0957 54.1403 71.5115 55 71.0001C55.8598 70.4887 57.0005 69.9421 58 70.0001C58.9995 70.0581 60.2057 70.3926 61 71.0001C61.7944 71.6076 62.685 72.0528 63 73.0001C63.315 73.9474 63.2731 75.04 63 76.0001C62.7269 76.9602 61.7669 78.3585 61 79.0001C60.2331 79.6417 59.996 79.8985 59 80.0001C58.3657 80.101 57.6227 80.1573 57 80.0001C56.3773 79.8429 55.5096 79.3898 55 79.0001C54.4904 78.6104 54.3136 78.5589 54 78.0001C53.6864 77.4413 53.0665 76.6369 53 76.0001ZM61 75.0001C60.9304 74.4464 60.3647 73.4234 60 73.0001C59.6353 72.5768 59.5386 73.1524 59 73.0001C58.4614 72.8478 57.5334 72.8307 57 73.0001C56.4666 73.1696 56.3509 73.5653 56 74.0001C55.6491 74.4349 55.0517 74.4445 55 75.0001C54.9483 75.5557 55.7353 76.5084 56 77.0001C56.2647 77.4918 56.5069 77.7358 57 78.0001C57.4931 78.2644 57.4425 78.0511 58 78.0001C58.3844 77.9749 58.6582 78.1773 59 78.0001C59.3418 77.8229 59.7586 77.2993 60 77.0001C60.2415 76.7009 60.8997 76.3708 61 76.0001C61.1003 75.6294 61.0577 75.3798 61 75.0001Z" fill="white"/>
<path d="M73 78V73L70 78H69L66 73L67 79H65L64 70H66L70 75L73 69H74L75 78H73Z" fill="white"/>
<path d="M85 72C85.0513 73.9759 83.4296 74.917 81 75L79 76V78H77V69H81C83.4381 68.9668 84.9316 70.0242 85 72ZM83 72C83 71.0287 82.2918 70.9668 81 71H79V74H81C82.2832 73.9668 83.0257 72.9631 83 72Z" fill="white"/>
<path d="M87 69H89V76H94V78H87V69Z" fill="white"/>
<path d="M102 76V78H95V69H102V71H97V73H101V74H97V76H102Z" fill="white"/>
<path d="M106 71H103V69H111V71H108V78H105L106 71Z" fill="white"/>
<path d="M118 78V80L111 79L112 70L119 71V72H114V74H118V76H114L113 78H118Z" fill="white"/>
<path d="M121 70L125 71C128.033 71.4099 130.369 73.1928 130 76C129.631 78.8072 127.033 80.4456 124 80L120 79L121 70ZM124 78C124.383 78.0623 124.624 78.0935 125 78C125.376 77.9065 126.689 78.2345 127 78C127.311 77.7655 126.803 77.3386 127 77C127.197 76.6614 127.949 76.3894 128 76C128.051 75.6106 128.102 74.3789 128 74C127.898 73.6211 127.24 73.3088 127 73C126.76 72.6912 126.339 73.19 126 73C125.661 72.81 125.385 72.0413 125 72H123L122 78H124Z" fill="white"/>
<path d="M165 63L167 65L174 63L172 60L165 63Z" fill="#455A64"/>
<path d="M163 51C163 51.6922 162.385 51.4244 162 52C161.615 52.5756 161.64 53.7351 161 54C160.36 54.2649 159.679 54.135 159 54C158.321 53.865 157.489 53.4895 157 53C156.511 52.5105 156.135 51.6789 156 51C155.865 50.3211 155.735 49.6395 156 49C156.265 48.3605 157.424 48.3846 158 48C158.576 47.6154 159.308 47 160 47C160.928 47.0024 161.344 47.3441 162 48C162.656 48.6559 162.998 50.0725 163 51Z" fill="#2196F3"/>
<path d="M88 100C87.9984 100.297 88.1668 99.7539 88 100C87.8332 100.246 87.2756 100.888 87 101C86.7244 101.112 86.2911 101.061 86 101C85.7089 100.939 85.208 101.212 85 101C84.792 100.788 85.0546 100.292 85 100C84.9454 99.7077 84.8826 99.2732 85 99C85.1173 98.7268 85.7504 98.1616 86 98C86.2495 97.8383 86.7027 97.9953 87 98C87.3951 98.0061 87.7235 97.7176 88 98C88.2765 98.2823 88.0021 99.6048 88 100Z" fill="#2196F3"/>
<path d="M11 76C11 76.2976 11.1657 75.7529 11 76C10.8342 76.2471 10.2753 76.8871 9.99999 77C9.7247 77.1129 9.29151 77.0596 8.99999 77C8.70847 76.9405 8.20893 77.2119 7.99999 77C7.79106 76.7882 8.05553 76.2924 7.99999 76C7.94446 75.7077 7.8833 75.2737 7.99999 75C8.11668 74.7263 8.75063 74.1624 8.99999 74C9.24935 73.8377 9.70248 73.996 9.99999 74C10.3942 74.0054 10.7231 73.7193 11 74C11.2769 74.2808 11 75.6057 11 76Z" fill="#2196F3"/>
<path d="M6 61H9L11 54H8L6 61Z" fill="#455A64"/>
<path d="M122 120L123 123L131 122L129 119L122 120Z" fill="#2196F3"/>
<path d="M47 99L45 102L50 108L52 105L47 99Z" fill="#455A64"/>
<path d="M38 31L47 40L60 35V38L55 49L60 57L59 59L47 57L40 65L38 64L37 54L25 48V46L36 43L38 31Z" fill="#2196F3"/>
<g opacity="0.3">
<path d="M38 31L47 40L60 35V38L55 49L60 57L59 59L47 57L40 65L38 64L37 54L25 48V46L36 43L38 31Z" fill="black"/>
</g>
<path d="M38 28L47 37L59 35L53 46L59 57L47 55L38 64L36 52L25 46L36 40L38 28Z" fill="#2196F3"/>
<path d="M129 31L120 40L107 35V38L112 49L107 57L108 59L120 57L127 65L129 64L130 54L142 48V46L131 43L129 31Z" fill="#2196F3"/>
<g opacity="0.3">
<path d="M129 31L120 40L107 35V38L112 49L107 57L108 59L120 57L127 65L129 64L130 54L142 48V46L131 43L129 31Z" fill="black"/>
</g>
<path d="M129 28L120 37L108 35L114 46L108 57L120 55L129 64L131 52L142 46L131 40L129 28Z" fill="#2196F3"/>
<path d="M83 15L90 29L107 28L106 32L96 43L99 55L97 58L83 51L72 58L70 56L72 43L61 32V29H76L83 15Z" fill="#2196F3"/>
<g opacity="0.3">
<path d="M83 15L90 29L107 28L106 32L96 43L99 55L97 58L83 51L72 58L70 56L72 43L61 32V29H76L83 15Z" fill="black"/>
</g>
<path d="M84 12L91 26L107 28L96 40L99 56L84 48L70 56L73 40L61 29L77 27L84 12Z" fill="#2196F3"/>
</svg>
